<?xml version="1.0" encoding="UTF-8" standalone="no"?>
<svg
   xmlns:dc="http://purl.org/dc/elements/1.1/"
   xmlns:cc="http://creativecommons.org/ns#"
   xmlns:rdf="http://www.w3.org/1999/02/22-rdf-syntax-ns#"
   xmlns:svg="http://www.w3.org/2000/svg"
   xmlns="http://www.w3.org/2000/svg"
   xmlns:sodipodi="http://sodipodi.sourceforge.net/DTD/sodipodi-0.dtd"
   xmlns:inkscape="http://www.inkscape.org/namespaces/inkscape"
   inkscape:version="1.0 (4035a4fb49, 2020-05-01)"
   sodipodi:docname="Quake-logo.svg"
   xml:space="preserve"
   enable-background="new 0 0 1151.492 1735.227"
   viewBox="-591.868 -400 2335.227 2335.227"
   height="1735.227px"
   width="1735.227px"
   y="0px"
   x="0px"
   id="Layer_1"
   version="1.1"><rect x="-591.868" y="-400" width="2335.227" height="2335.227" fill="#000000"/><metadata
   id="metadata20"><rdf:RDF><cc:Work
       rdf:about=""><dc:format>image/svg+xml</dc:format><dc:type
         rdf:resource="http://purl.org/dc/dcmitype/StillImage" /></cc:Work></rdf:RDF></metadata><defs
   id="defs18">
		
	
			
			
		
				
			
	
	
</defs><sodipodi:namedview
   inkscape:current-layer="Layer_1"
   inkscape:window-maximized="1"
   inkscape:window-y="-9"
   inkscape:window-x="-9"
   inkscape:cy="846.76247"
   inkscape:cx="837.62148"
   inkscape:zoom="0.42357569"
   showgrid="false"
   id="namedview16"
   inkscape:window-height="991"
   inkscape:window-width="1920"
   inkscape:pageshadow="2"
   inkscape:pageopacity="0"
   guidetolerance="10"
   gridtolerance="10"
   objecttolerance="10"
   borderopacity="1"
   bordercolor="#666666"
   pagecolor="#ffffff" />
<path
   style="fill:#ffffff;fill-opacity:1"
   id="path2"
   d="M 519.419,1109.182 C 240.757,1079.931 23,842.176 23,555.919 23,332.117 155.76,139.315 346.831,52 l -0.016,17.282 C 196.695,151.297 94.873,310.61 94.873,493.728 c 0,209.292 185.223,445.354 424.546,479.224 0,-48.748 0,-165.24 0,-197.812 C 508.079,735.929 441,734.831 441,734.831 v -12.267 h 272.582 v 12.267 c 0,0 -67.035,1.098 -78.422,40.309 0,32.571 0.106,149.107 0.106,197.812 234.892,-28.938 426.32,-232.122 426.32,-479.224 0,-184.416 -102.805,-342.778 -254.093,-424.445 V 52 c 190.614,87.5 322.999,280.636 322.999,504.106 0,301.902 -216.692,525.661 -495.242,553.075 v 0.166 l -0.003,175.701 -60.881,303.657 -54.947,-303.657 z" />

</svg>
